# xmcd CD database file
#
# Track frame offsets:
#	150
#	12786
#	17830
#	20567
#	21989
#	34021
#	38787
#	41354
#	42231
#	58377
#	63177
#	65548
#	67012
#	84576
#	102063
#	107000
#	109706
#	111261
#	127067
#	131911
#	134324
#	135787
#	148643
#	153378
#	155811
#	156764
#	183298
#	188156
#	190774
#	191826
#	213162
#	217846
#	220290
#	221569
#	241402
#	246202
#	248675
#	249740
#	267095
#	272043
#	274791
#
# Disc length: 3678 seconds
#
# Revision: 0
# Processed by: cddbd v1.5.2PL0 Copyright (c) Steve Scherf et al.
# Submitted via: CDex 1.51
#
DISCID=5d0e5c29
DTITLE=Studio Cutz - Jazz Essentials
DYEAR=1900
DGENRE=Jazz
TTITLE0=Charlie's Here - Full
TTITLE1=Charlie's Here - 60
TTITLE2=Charlie's Here - 30
TTITLE3=Charlie's Here - 12
TTITLE4=Argyle Park - Full
TTITLE5=Argyle Park - 60
TTITLE6=Argyle Park - 30
TTITLE7=Argyle Park - 10
TTITLE8=Swingster - Full
TTITLE9=Swingster - 60
TTITLE10=Swingster - 30
TTITLE11=Swingster - 15
TTITLE12=All or Nothing - Full
TTITLE13=All or Nothing - Alt
TTITLE14=All or Nothing - 60
TTITLE15=All or Nothing - 30
TTITLE16=All or Nothing - 15
TTITLE17=Grand Slam - Full
TTITLE18=Grand Slam - 60
TTITLE19=Grand Slam - 30
TTITLE20=Grand Slam - 12
TTITLE21=Carry On - Full
TTITLE22=Carry On - 60
TTITLE23=Carry On - 30
TTITLE24=Carry On - 12
TTITLE25=All You Can - Full
TTITLE26=All You Can - 60
TTITLE27=All You Can - 30
TTITLE28=All You Can - 15
TTITLE29=Sunday Morning - Full
TTITLE30=Sunday Morning - 60
TTITLE31=Sunday Morning - 30
TTITLE32=Sunday Morning - 15
TTITLE33=Great Wide Open - Full
TTITLE34=Great Wide Open - 60
TTITLE35=Great Wide Open - 30
TTITLE36=Great Wide Open - 10
TTITLE37=Smooth Move - Full
TTITLE38=Smooth Move - 60
TTITLE39=Smooth Move - 30
TTITLE40=Smooth Move - 10
EXTD=
EXTT0=
EXTT1=
EXTT2=
EXTT3=
EXTT4=
EXTT5=
EXTT6=
EXTT7=
EXTT8=
EXTT9=
EXTT10=
EXTT11=
EXTT12=
EXTT13=
EXTT14=
EXTT15=
EXTT16=
EXTT17=
EXTT18=
EXTT19=
EXTT20=
EXTT21=
EXTT22=
EXTT23=
EXTT24=
EXTT25=
EXTT26=
EXTT27=
EXTT28=
EXTT29=
EXTT30=
EXTT31=
EXTT32=
EXTT33=
EXTT34=
EXTT35=
EXTT36=
EXTT37=
EXTT38=
EXTT39=
EXTT40=
PLAYORDER=
